<?xml version="1.0" encoding="UTF-8" standalone="no"?>
<!-- Created with Inkscape (http://www.inkscape.org/) -->

<svg
   width="800"
   height="600"
   viewBox="0 0 211.66666 158.75"
   version="1.1"
   id="svg1"
   xml:space="preserve"
   xmlns="http://www.w3.org/2000/svg"
   xmlns:svg="http://www.w3.org/2000/svg"><defs
     id="defs1" /><path
     id="rect1-5-7-6"
     style="fill:#e07a5f;fill-opacity:1;stroke-width:0.213527;-inkscape-stroke:none"
     d="M 95.249998,0 V 32.8192 A 52.916664,52.916664 0 0 0 52.916666,84.666604 52.916664,52.916664 0 0 0 105.83333,137.5833 52.916664,52.916664 0 0 0 158.75,84.666604 52.916664,52.916664 0 0 0 116.41666,32.8192 V 0 Z m 10.583332,52.9166 a 31.75,31.75 0 0 1 31.75,31.750004 31.75,31.75 0 0 1 -31.75,31.749996 A 31.75,31.75 0 0 1 74.083332,84.666604 31.75,31.75 0 0 1 105.83333,52.9166 Z" /></svg>
