<?xml version="1.0" encoding="UTF-8" standalone="no"?>
<!-- Created with Inkscape (http://www.inkscape.org/) -->

<svg
   width="800"
   height="600"
   viewBox="0 0 211.66666 158.75"
   version="1.1"
   id="svg1"
   xml:space="preserve"
   xmlns="http://www.w3.org/2000/svg"
   xmlns:svg="http://www.w3.org/2000/svg"><defs
     id="defs1" /><path
     id="rect1-5-7"
     style="fill:#e07a5f;fill-opacity:1;stroke-width:0.21353;-inkscape-stroke:none"
     d="M 105.83333,31.75 A 52.916664,52.917954 0 0 0 52.916666,84.667955 52.916664,52.917954 0 0 0 95.249998,136.5167 V 158.75 H 116.41666 V 136.5167 A 52.916664,52.917954 0 0 0 158.75,84.667955 52.916664,52.917954 0 0 0 105.83333,31.75 Z m 0,21.167183 a 31.75,31.750774 0 0 1 31.75,31.750772 31.75,31.750774 0 0 1 -31.75,31.750765 A 31.75,31.750774 0 0 1 74.083332,84.667955 31.75,31.750774 0 0 1 105.83333,52.917183 Z" /><path
     id="rect52"
     style="font-variation-settings:'wght' 500;fill:#ffffff;fill-opacity:1;stroke-width:0.279515;stroke-dasharray:none"
     d="m 103.54988,137.58591 v 4.75723 h -3.587568 l 5.871188,5.48111 5.87085,-5.48111 h -3.58723 v -4.75723 z" /></svg>
