<?xml version="1.0" encoding="UTF-8" standalone="no"?>
<!-- Created with Inkscape (http://www.inkscape.org/) -->

<svg
   width="300mm"
   height="100mm"
   viewBox="0 0 300 100"
   version="1.1"
   id="svg1"
   xml:space="preserve"
   xmlns="http://www.w3.org/2000/svg"
   xmlns:svg="http://www.w3.org/2000/svg"><defs
     id="defs1" /><g
     id="g39"
     transform="matrix(1.1175876,0,0,1.1175876,-15.814318,1.6629051)"><path
       id="path14"
       style="font-variation-settings:normal;vector-effect:none;fill:#2c7a7b;fill-opacity:1;stroke-width:0.402576;stroke-linecap:butt;stroke-linejoin:miter;stroke-miterlimit:4;stroke-dasharray:none;stroke-dashoffset:0;stroke-opacity:1;-inkscape-stroke:none"
       d="m 258.28391,11.382679 v 3.772293 h 9.62011 l -2.16998,2.14916 2.41411,2.390863 0.13271,0.131265 a 3.7891374,3.7203288 0 0 1 0.1458,0.140468 v 0.0029 c 0.6977,0.694231 1.09507,1.637721 1.09517,2.627721 1.4e-4,2.056978 -1.68193,3.724511 -3.75679,3.724341 -2.07468,-9.7e-5 -3.75645,-1.667551 -3.75632,-3.724341 -4e-5,-0.05394 9.4e-4,-0.107884 0.004,-0.16178 h -3.75437 c -9.3e-4,0.05392 -0.002,0.107848 -0.002,0.16178 -2e-4,4.111615 3.36186,7.444838 7.50923,7.44481 4.14737,2.8e-5 7.50942,-3.333195 7.50923,-7.44481 2e-5,-2.018176 -0.8205,-3.894028 -2.19422,-5.259316 l 2.20439,-2.183067 h 0.0111 v -3.772293 z" /><path
       id="path1"
       style="fill:#e07a5f;fill-opacity:1;stroke-width:0.401366"
       d="M 239.65692,18.820822 A 18.623413,18.623413 0 0 0 221.39643,33.779937 H 86.383645 A 18.623413,18.623413 0 0 0 68.135487,18.876319 18.623413,18.623413 0 0 0 49.511173,37.499087 18.623413,18.623413 0 0 0 68.135487,56.122636 18.623413,18.623413 0 0 0 86.338167,41.433307 H 221.46503 a 18.623413,18.623413 0 0 0 18.19189,14.634599 18.623413,18.623413 0 0 0 18.62276,-18.623549 18.623413,18.623413 0 0 0 -18.62276,-18.623535 z m 0,7.543917 A 11.079752,11.079752 0 0 1 250.73654,37.444357 11.079752,11.079752 0 0 1 239.65692,48.523986 11.079752,11.079752 0 0 1 228.57653,37.444357 11.079752,11.079752 0 0 1 239.65692,26.364739 Z M 68.135487,26.419469 A 11.079752,11.079752 0 0 1 79.21511,37.499087 11.079752,11.079752 0 0 1 68.135487,48.578716 11.079752,11.079752 0 0 1 57.055863,37.499087 11.079752,11.079752 0 0 1 68.135487,26.419469 Z" /><path
       style="fill:#2c7a7b;fill-opacity:1;stroke-width:0.401366"
       d="m 210.7022,44.982966 2.69398,11.17443 h 7.70194 l -2.69398,-11.17443 z"
       id="path13" /><path
       style="fill:#2c7a7b;fill-opacity:1;stroke-width:0.401366"
       d="m 193.99722,44.982966 -2.694,11.17443 h 7.70194 l 2.69398,-11.17443 z"
       id="path12" /><path
       style="fill:#2c7a7b;fill-opacity:1;stroke-width:0.401366"
       d="m 164.04352,44.982966 -6.35224,11.16055 h 8.61534 l 6.30677,-11.07962 6.30909,11.08425 h 8.61534 l -6.35533,-11.16518 z"
       id="path11" /><path
       style="fill:#2c7a7b;fill-opacity:1;stroke-width:0.401366"
       d="m 124.15026,44.982966 v 3.70837 h -0.006 v 7.48764 h 29.8581 v -7.48764 h -22.43169 v -3.70837 z"
       id="path10" /><path
       style="fill:#2c7a7b;fill-opacity:1;stroke-width:0.401366"
       d="m 105.76412,44.982966 7.07835,11.16672 c 2.12586,-0.003 3.23465,-0.005 3.77466,-0.005 0.0201,-0.002 0.72607,-0.007 3.71453,-0.0208 v -11.14099 z"
       id="path9" /><path
       style="fill:#2c7a7b;fill-opacity:1;stroke-width:0.401366"
       d="m 90.548331,44.982966 v 11.16672 h 7.426756 v -11.16672 z"
       id="path8" /><path
       style="fill:#2c7a7b;fill-opacity:1;stroke-width:0.401366"
       d="m 42.064376,18.920335 a 18.623413,18.623413 0 0 0 -18.624311,18.623542 18.623413,18.623413 0 0 0 18.624311,18.622769 18.623413,18.623413 0 0 0 11.15979,-3.71376 18.623413,18.623413 0 0 1 -5.0041,-5.69706 11.079752,11.079752 0 0 1 -6.15569,1.86767 11.079752,11.079752 0 0 1 -11.079623,-11.079619 11.079752,11.079752 0 0 1 11.079623,-11.079624 11.079752,11.079752 0 0 1 6.179586,1.883089 18.623413,18.623413 0 0 1 5.017974,-5.684724 18.623413,18.623413 0 0 0 -11.19756,-3.742283 z"
       id="path7" /><path
       style="fill:#2c7a7b;fill-opacity:1;stroke-width:0.401366"
       d="m 200.29319,18.867142 -2.70631,11.22531 h 7.70193 l 0.9111,-3.780826 0.91186,3.780826 h 7.70194 l -2.70632,-11.22531 z"
       id="path6" /><path
       style="fill:#2c7a7b;fill-opacity:1;stroke-width:0.401366"
       d="m 157.68975,18.845556 6.40157,11.246896 h 17.04338 l 6.40158,-11.245356 h -8.61535 l -6.30754,11.081166 -6.30831,-11.082706 z"
       id="path5" /><path
       style="fill:#2c7a7b;fill-opacity:1;stroke-width:0.401366"
       d="m 124.15102,18.833923 v 2.051127 h -7.6e-4 v 9.207327 h 7.42135 v -3.770803 h 22.43828 v -7.487651 z"
       id="path4" /><path
       style="fill:#2c7a7b;fill-opacity:1;stroke-width:0.401366"
       d="m 112.90491,18.833923 v 11.258454 h 7.42675 V 18.833923 Z"
       id="path3" /><path
       style="fill:#2c7a7b;fill-opacity:1;stroke-width:0.401366"
       d="M 90.548331,18.833923 V 30.092377 H 105.11664 L 97.979712,18.833923 Z"
       id="path2" /><path
       style="font-variation-settings:normal;vector-effect:none;fill:#2c7a7b;fill-opacity:1;stroke-width:0.401366;stroke-linecap:butt;stroke-linejoin:miter;stroke-miterlimit:4;stroke-dasharray:none;stroke-dashoffset:0;stroke-opacity:1;-inkscape-stroke:none;stop-color:#000000"
       d="m 198.64519,11.382503 v 3.772344 h 15.01231 v -3.772344 z"
       id="path1-2" /><text
       xml:space="preserve"
       style="font-style:normal;font-variant:normal;font-weight:300;font-stretch:normal;font-size:10.6488px;font-family:Lato;-inkscape-font-specification:'Lato, Light';font-variant-ligatures:normal;font-variant-caps:normal;font-variant-numeric:normal;font-variant-east-asian:normal;text-align:start;letter-spacing:0.159732px;word-spacing:0.958391px;writing-mode:lr-tb;direction:ltr;text-anchor:start;vector-effect:none;fill:#212121;fill-opacity:1;stroke-width:0.430855;stroke-linecap:butt;stroke-linejoin:miter;stroke-miterlimit:4;stroke-dasharray:none;stroke-dashoffset:0;stroke-opacity:1;-inkscape-stroke:none"
       x="24.925129"
       y="75.034874"
       id="text21"><tspan
         id="tspan21"
         style="font-style:normal;font-variant:normal;font-weight:300;font-stretch:normal;font-size:10.6488px;font-family:Lato;-inkscape-font-specification:'Lato, Light';font-variant-ligatures:normal;font-variant-caps:normal;font-variant-numeric:normal;font-variant-east-asian:normal;letter-spacing:0.159732px;word-spacing:0.958391px;fill:#212121;fill-opacity:1;stroke-width:0.430855"
         x="24.925129"
         y="75.034874"
         dx="0">INTELIGÊNCIA RELACIONAL EM MOVIMENTO</tspan></text></g></svg>
